<svg xmlns="http://www.w3.org/2000/svg" viewBox="0 0 500 500"><g id="freepik--background-complete--inject-10"><rect y="382.4" width="500" height="0.25" style="fill:#ebebeb"></rect><rect x="416.78" y="398.49" width="33.12" height="0.25" style="fill:#ebebeb"></rect><rect x="322.53" y="401.21" width="8.69" height="0.25" style="fill:#ebebeb"></rect><rect x="396.59" y="389.21" width="19.19" height="0.25" style="fill:#ebebeb"></rect><rect x="52.46" y="390.89" width="43.19" height="0.25" style="fill:#ebebeb"></rect><rect x="104.56" y="390.89" width="6.33" height="0.25" style="fill:#ebebeb"></rect><rect x="131.47" y="395.11" width="93.68" height="0.25" style="fill:#ebebeb"></rect><path d="M237,337.8H43.91a5.71,5.71,0,0,1-5.7-5.71V60.66A5.71,5.71,0,0,1,43.91,55H237a5.71,5.71,0,0,1,5.71,5.71V332.09A5.71,5.71,0,0,1,237,337.8ZM43.91,55.2a5.46,5.46,0,0,0-5.45,5.46V332.09a5.46,5.46,0,0,0,5.45,5.46H237a5.47,5.47,0,0,0,5.46-5.46V60.66A5.47,5.47,0,0,0,237,55.2Z" style="fill:#ebebeb"></path><path d="M453.31,337.8H260.21a5.72,5.72,0,0,1-5.71-5.71V60.66A5.72,5.72,0,0,1,260.21,55h193.1A5.71,5.71,0,0,1,459,60.66V332.09A5.71,5.71,0,0,1,453.31,337.8ZM260.21,55.2a5.47,5.47,0,0,0-5.46,5.46V332.09a5.47,5.47,0,0,0,5.46,5.46h193.1a5.47,5.47,0,0,0,5.46-5.46V60.66a5.47,5.47,0,0,0-5.46-5.46Z" style="fill:#ebebeb"></path><path d="M105.23,264.74c0-.22.74-21.68,4.23-25.07s7.29-.13,7.45,0l.35-.42s-4.44-3.62-8.18,0-4.36,24.55-4.39,25.44Z" style="fill:#e0e0e0"></path><path d="M104.93,269c0-.25,2.39-25.76-6.93-36.45l-.41.36c9.16,10.51,6.82,35.79,6.8,36Z" style="fill:#e0e0e0"></path><path d="M105.28,266.26l.54,0c0-.29-1.82-29,5-35.28l-.37-.4C103.44,237,105.2,265.06,105.28,266.26Z" style="fill:#e0e0e0"></path><path d="M104.39,266.24h.54c0-.79-.22-19.39-5.5-22.42a3.73,3.73,0,0,0-3.42-.34c-3.2,1.33-4.78,7-4.85,7.25l.53.15c0-.06,1.58-5.67,4.53-6.89a3.23,3.23,0,0,1,2.93.3C104.17,247.16,104.39,266.05,104.39,266.24Z" style="fill:#e0e0e0"></path><path d="M106.45,266.25l.54,0c0-.14-.8-14.7,3.13-19.82a3.64,3.64,0,0,1,3.08-1.76c2.57.18,4.73,3.94,4.75,4l.47-.27c-.09-.16-2.32-4-5.18-4.26a4.14,4.14,0,0,0-3.55,2C105.64,251.35,106.41,265.65,106.45,266.25Z" style="fill:#e0e0e0"></path><path d="M105.58,268.23c.11-1.41,2.57-34.63-1.76-40.49l-.44.32c4.21,5.7,1.69,39.79,1.66,40.13Z" style="fill:#e0e0e0"></path><path d="M94.83,246.85s2.6,1,1.82,3.22-9,6-9,6-3.44-3.15-.28-8.28S94.76,245.23,94.83,246.85Z" style="fill:#ebebeb"></path><path d="M106.12,242.55s-2.77-.12-2.92,2.27,6,9,6,9,4.38-1.58,3.44-7.53S106.81,241.08,106.12,242.55Z" style="fill:#ebebeb"></path><path d="M108.46,231.14s-1.84-.2-1.69-1.32,7.16-4,11.3.66c0,0-2.65,4.55-6.48,4.61S108.46,231.14,108.46,231.14Z" style="fill:#ebebeb"></path><path d="M105,228.41s1.67.81,2.14-.22-4-7.2-9.94-5.42c0,0-.16,5.27,3.06,7.34S105,228.41,105,228.41Z" style="fill:#ebebeb"></path><path d="M113.75,245.94s-1.27-1,.1-1.53,8.12-.35,8.19,6.32c0,0-7.85,1.3-8.82-1.24S113.75,245.94,113.75,245.94Z" style="fill:#ebebeb"></path><path d="M97.75,231s1.27-1-.1-1.53-8.11-.35-8.18,6.32c0,0,7.85,1.3,8.82-1.24S97.75,231,97.75,231Z" style="fill:#ebebeb"></path><path d="M101.9,236.35s.11-1.25-.9-.76-4.52,4.28-.88,7.88c0,0,4.91-3.63,4-5.52S101.9,236.35,101.9,236.35Z" style="fill:#ebebeb"></path><path d="M114.89,238.13s-.76-1,.35-1.12,6.11,1.21,5,6.19c0,0-6.08-.45-6.34-2.53S114.89,238.13,114.89,238.13Z" style="fill:#ebebeb"></path><polygon points="94.34 284.74 115.21 284.74 117.46 261.89 92.09 261.89 94.34 284.74" style="fill:#f0f0f0"></polygon><rect x="90.98" y="259.37" width="27.6" height="5.04" transform="translate(209.56 523.78) rotate(180)" style="fill:#e6e6e6"></rect><path d="M329.18,375.69h-19.6l10.3-100c.44-4.24,3.67-7.67,7.22-7.67h85.52L400.09,375.69Z" style="fill:#f5f5f5"></path><path d="M391.34,375.69h19.6l10.3-100c.44-4.24-2.09-7.67-5.64-7.67h-6.74c-3.55,0-6.78,3.43-7.22,7.67Z" style="fill:#f0f0f0"></path><path d="M384.12,375.57l3.55-48.39A4.33,4.33,0,0,1,391,323l1.46-.22c2.42-.37,4.3-2.7,4.52-5.6l.64-8.82c.27-3.62-2.12-6.73-5.17-6.73h32.76c3,0,5.43,3.11,5.17,6.73l-.65,8.82c-.21,2.9-2.09,5.23-4.51,5.6l-1.46.22a4.33,4.33,0,0,0-3.37,4.17l-3.55,48.39c-.26,3.53-2.74,6.23-5.71,6.23H378.41C381.38,381.8,383.86,379.1,384.12,375.57Z" style="fill:#e6e6e6"></path><path d="M294,315.07c-.56-7.6-5.89-13.43-12.29-13.43H310.2c6.4,0,11.74,5.83,12.3,13.43l2.81,38.36H296.79Z" style="fill:#e6e6e6"></path><path d="M269,301.64h12.67c6.4,0,11.73,5.83,12.29,13.43l2.81,38.36h67.92l2.81-38.36c.56-7.6,5.9-13.43,12.3-13.43h12.66c3,0,5.44,3.11,5.17,6.73l-.64,8.82c-.22,2.9-2.1,5.23-4.52,5.6L391,323a4.33,4.33,0,0,0-3.36,4.17l-3.55,48.39c-.26,3.53-2.74,6.23-5.71,6.23H283.09c-3,0-5.44-2.7-5.7-6.23l-3.55-48.39a4.33,4.33,0,0,0-3.37-4.17l-1.46-.22c-2.42-.37-4.3-2.7-4.51-5.6l-.65-8.82C263.58,304.75,266,301.64,269,301.64Z" style="fill:#f0f0f0"></path><rect x="80.52" y="289.62" width="75.81" height="81.59" transform="translate(236.84 660.84) rotate(180)" style="fill:#e6e6e6"></rect><rect x="68.94" y="283.55" width="9.53" height="98.25" transform="translate(147.41 665.36) rotate(180)" style="fill:#e6e6e6"></rect><rect x="138.04" y="296.04" width="6.21" height="30.49" transform="translate(282.3 622.58) rotate(180)" style="fill:#fafafa"></rect><rect x="112.29" y="296.04" width="6.21" height="30.49" transform="translate(230.79 622.58) rotate(180)" style="fill:#f5f5f5"></rect><rect x="131.83" y="298.19" width="6.21" height="28.35" transform="translate(269.88 624.72) rotate(180)" style="fill:#f5f5f5"></rect><rect x="118.5" y="298.19" width="6.21" height="28.35" transform="translate(243.21 624.72) rotate(180)" style="fill:#fafafa"></rect><rect x="124.71" y="296.04" width="4.01" height="30.49" transform="translate(253.44 622.58) rotate(180)" style="fill:#ebebeb"></rect><rect x="128.73" y="298.19" width="3.11" height="28.35" transform="translate(260.56 624.72) rotate(180)" style="fill:#fafafa"></rect><rect x="106.08" y="296.04" width="6.21" height="30.49" transform="translate(218.37 622.58) rotate(180)" style="fill:#ebebeb"></rect><rect x="99.87" y="298.19" width="6.21" height="28.35" transform="translate(205.95 624.72) rotate(180)" style="fill:#e6e6e6"></rect><rect x="86.54" y="298.19" width="6.21" height="28.35" transform="translate(179.28 624.72) rotate(180)" style="fill:#e6e6e6"></rect><rect x="92.75" y="296.04" width="4.01" height="30.49" transform="translate(189.51 622.58) rotate(180)" style="fill:#fafafa"></rect><rect x="96.76" y="298.19" width="3.11" height="28.35" transform="translate(196.63 624.72) rotate(180)" style="fill:#ebebeb"></rect><rect x="83.43" y="296.77" width="3.11" height="29.77" transform="translate(169.97 623.3) rotate(180)" style="fill:#fafafa"></rect><rect x="83.43" y="336.91" width="6.21" height="30.49" style="fill:#fafafa"></rect><rect x="109.18" y="336.91" width="6.21" height="30.49" style="fill:#fafafa"></rect><rect x="89.64" y="339.06" width="6.21" height="28.35" style="fill:#f0f0f0"></rect><rect x="102.97" y="339.06" width="6.21" height="28.35" style="fill:#ebebeb"></rect><rect x="98.96" y="336.91" width="4.01" height="30.49" style="fill:#fafafa"></rect><rect x="95.85" y="339.06" width="3.11" height="28.35" style="fill:#f5f5f5"></rect><rect x="115.4" y="336.91" width="6.21" height="30.49" style="fill:#ebebeb"></rect><rect x="121.61" y="339.06" width="6.21" height="28.35" style="fill:#f5f5f5"></rect><rect x="134.94" y="339.06" width="6.21" height="28.35" style="fill:#e6e6e6"></rect><rect x="130.92" y="336.91" width="4.01" height="30.49" style="fill:#fafafa"></rect><rect x="144.25" y="336.91" width="4.01" height="30.49" style="fill:#fafafa"></rect><rect x="127.82" y="339.06" width="3.11" height="28.35" style="fill:#ebebeb"></rect><rect x="141.15" y="337.64" width="3.11" height="29.77" style="fill:#f0f0f0"></rect><path d="M78.36,283.55V381.8h5.08v-5.5h75.28V283.55H78.36Zm5.08,48.1h70.49V367.4H83.44Zm0-39.2h70.49v34.12H83.44Z" style="fill:#f0f0f0"></path><rect x="156.45" y="289.62" width="75.81" height="81.59" style="fill:#e6e6e6"></rect><rect x="219.81" y="375.3" width="9.53" height="6.5" style="fill:#e6e6e6"></rect><rect x="159" y="296.04" width="6.21" height="30.49" style="fill:#fafafa"></rect><rect x="184.75" y="296.04" width="6.21" height="30.49" style="fill:#f5f5f5"></rect><rect x="165.21" y="298.19" width="6.21" height="28.35" style="fill:#f5f5f5"></rect><rect x="178.54" y="298.19" width="6.21" height="28.35" style="fill:#fafafa"></rect><rect x="174.53" y="296.04" width="4.01" height="30.49" style="fill:#ebebeb"></rect><rect x="171.42" y="298.19" width="3.11" height="28.35" style="fill:#fafafa"></rect><rect x="186.87" y="296.04" width="6.21" height="30.49" style="fill:#ebebeb"></rect><rect x="193.08" y="298.19" width="6.21" height="28.35" style="fill:#e6e6e6"></rect><rect x="206.41" y="298.19" width="6.21" height="28.35" style="fill:#e6e6e6"></rect><rect x="202.4" y="296.04" width="4.01" height="30.49" style="fill:#fafafa"></rect><rect x="199.29" y="298.19" width="3.11" height="28.35" style="fill:#ebebeb"></rect><rect x="212.62" y="296.77" width="3.11" height="29.77" style="fill:#f5f5f5"></rect><rect x="212.44" y="336.91" width="6.21" height="30.49" transform="translate(431.08 704.32) rotate(180)" style="fill:#fafafa"></rect><rect x="186.68" y="336.91" width="6.21" height="30.49" transform="translate(379.58 704.32) rotate(180)" style="fill:#fafafa"></rect><rect x="206.22" y="339.06" width="6.21" height="28.35" transform="translate(418.66 706.46) rotate(180)" style="fill:#f5f5f5"></rect><rect x="192.89" y="339.06" width="6.21" height="28.35" transform="translate(392 706.46) rotate(180)" style="fill:#ebebeb"></rect><rect x="199.1" y="336.91" width="4.01" height="30.49" transform="translate(402.22 704.32) rotate(180)" style="fill:#fafafa"></rect><rect x="203.12" y="339.06" width="3.11" height="28.35" transform="translate(409.34 706.46) rotate(180)" style="fill:#f5f5f5"></rect><rect x="184.57" y="336.91" width="6.21" height="30.49" transform="translate(375.34 704.32) rotate(180)" style="fill:#ebebeb"></rect><rect x="178.35" y="339.06" width="6.21" height="28.35" transform="translate(362.92 706.46) rotate(180)" style="fill:#f5f5f5"></rect><rect x="165.02" y="339.06" width="6.21" height="28.35" transform="translate(336.26 706.46) rotate(180)" style="fill:#e6e6e6"></rect><rect x="171.23" y="336.91" width="4.01" height="30.49" transform="translate(346.48 704.32) rotate(180)" style="fill:#fafafa"></rect><rect x="158.72" y="336.91" width="4.01" height="30.49" transform="translate(321.46 704.32) rotate(180)" style="fill:#fafafa"></rect><rect x="175.25" y="339.06" width="3.11" height="28.35" transform="translate(353.6 706.46) rotate(180)" style="fill:#ebebeb"></rect><rect x="161.92" y="337.64" width="3.11" height="29.77" transform="translate(326.94 705.04) rotate(180)" style="fill:#ebebeb"></rect><path d="M231.87,283.55H154.05V376.3h75.28v5.5h5.08V283.55Zm-2.54,83.85H158.84V331.65h70.49Zm0-40.83H158.84V292.45h70.49Z" style="fill:#f0f0f0"></path><polygon points="159 268.95 151.71 284.08 168.13 284.08 159 268.95" style="fill:#f0f0f0"></polygon><polygon points="193.68 284.08 157.15 284.08 151.71 258.57 188.24 258.57 193.68 284.08" style="fill:#e6e6e6"></polygon><polygon points="190.64 281.39 159.04 281.39 154.75 261.25 186.35 261.25 190.64 281.39" style="fill:#f0f0f0"></polygon></g><g id="freepik--Shadow--inject-10"><ellipse id="freepik--path--inject-10" cx="250" cy="416.24" rx="193.89" ry="11.32" style="fill:#f5f5f5"></ellipse></g><g id="freepik--gifts-2--inject-10"><path d="M412.15,381.24l-1-2.65c-13.47.62-15-4.45-15.12-6.07-.25-3,2.45-5.72,6-6.08,4.93-.5,8.22,3.92,9.9,6.83,2.54-3.06,7.46-5.59,11.17-5.59h0c2.84,0,4.85,1.34,5.53,4a4.48,4.48,0,0,1-1,4.35c-3.13,3.53-12.16,2.85-14.88,2.56Zm1.6-5.37c4.09.36,10,.09,11.71-1.79.27-.3.54-.61.3-1.58-.34-1.37-1.15-1.82-2.62-1.82h0C419.86,370.68,415.24,373.48,413.75,375.87Zm-10.92-6.47-.47,0c-2,.2-3.44,1.66-3.34,2.84s2.59,3.57,10.92,3.36C408.91,373.56,406.41,369.4,402.83,369.4Z" style="fill:#263238"></path><rect x="382.63" y="377.02" width="58.46" height="40.16" style="fill:#40AFFF"></rect><rect x="382.63" y="390.89" width="58.46" height="26.28" style="opacity:0.2;isolation:isolate"></rect><rect x="421.59" y="377.02" width="4.75" height="40.16" style="fill:#263238"></rect><rect x="390.84" y="377.02" width="3.49" height="40.16" style="fill:#263238"></rect><rect x="382.63" y="377.02" width="23.23" height="40.16" style="opacity:0.2;isolation:isolate"></rect><path d="M377.35,391.1c-1.84.19-8,.65-10.07-1.73a3,3,0,0,1-.65-2.95,3.5,3.5,0,0,1,3.74-2.74h0a11.22,11.22,0,0,1,7.56,3.79c1.13-2,3.36-5,6.7-4.62,2.42.24,4.25,2.09,4.08,4.11-.09,1.1-1.11,4.53-10.23,4.11l-.68,1.79Zm-7-5.42h0c-1,0-1.54.33-1.77,1.25-.17.66,0,.88.2,1.08,1.13,1.27,5.16,1.44,7.93,1.2A9.19,9.19,0,0,0,370.37,385.68Zm8.93,3.39c5.63.14,7.31-1.38,7.39-2.28s-.89-1.78-2.26-1.92h-.32C381.69,384.86,380,387.67,379.3,389.07Z" style="fill:#40AFFF"></path><rect x="358.23" y="390.01" width="39.55" height="27.17" transform="translate(756 807.18) rotate(180)" style="fill:#40AFFF"></rect><rect x="358.23" y="390.01" width="39.55" height="27.17" transform="translate(756 807.18) rotate(180)" style="fill:#fff;opacity:0.6000000000000001"></rect><rect x="358.23" y="399.39" width="39.55" height="17.78" transform="translate(756 816.57) rotate(180)" style="opacity:0.1;isolation:isolate"></rect><rect x="382.06" y="390.01" width="15.71" height="27.17" transform="translate(779.84 807.18) rotate(180)" style="fill:#fff;opacity:0.2"></rect><rect x="368.21" y="390.01" width="3.21" height="27.17" transform="translate(739.62 807.18) rotate(180)" style="fill:#40AFFF"></rect><rect x="389.86" y="390.01" width="2.36" height="27.17" transform="translate(782.08 807.18) rotate(180)" style="fill:#40AFFF"></rect></g><g id="freepik--gifts-1--inject-10"><path d="M75.35,391.1c-1.84.19-7.95.65-10.07-1.73a3,3,0,0,1-.65-2.95,3.5,3.5,0,0,1,3.74-2.74h0a11.22,11.22,0,0,1,7.56,3.79c1.13-2,3.36-5,6.7-4.62,2.42.24,4.25,2.09,4.08,4.11-.09,1.1-1.11,4.53-10.23,4.11l-.68,1.79Zm-7-5.42h0c-1,0-1.54.33-1.77,1.25-.17.66,0,.88.2,1.08,1.13,1.27,5.16,1.44,7.93,1.2A9.19,9.19,0,0,0,68.37,385.68Zm8.93,3.39c5.63.14,7.31-1.38,7.39-2.28s-.89-1.78-2.26-1.92h-.32C79.69,384.86,78,387.67,77.3,389.07Z" style="fill:#40AFFF"></path><rect x="56.23" y="390.01" width="39.55" height="27.17" transform="translate(152 807.18) rotate(180)" style="fill:#40AFFF"></rect><rect x="56.23" y="390.01" width="39.55" height="27.17" transform="translate(152 807.18) rotate(180)" style="fill:#fff;opacity:0.6000000000000001"></rect><rect x="56.23" y="399.39" width="39.55" height="17.78" transform="translate(152 816.57) rotate(180)" style="opacity:0.1;isolation:isolate"></rect><rect x="80.06" y="390.01" width="15.71" height="27.17" transform="translate(175.84 807.18) rotate(180)" style="fill:#fff;opacity:0.2"></rect><rect x="66.21" y="390.01" width="3.21" height="27.17" transform="translate(135.62 807.18) rotate(180)" style="fill:#40AFFF"></rect><rect x="87.86" y="390.01" width="2.36" height="27.17" transform="translate(178.08 807.18) rotate(180)" style="fill:#40AFFF"></rect><path d="M96.39,363.79s4.83-6.47,10.89-4.72,4,8.12-2.41,10.25S96.39,363.79,96.39,363.79Z" style="fill:#40AFFF"></path><path d="M100.15,365.24s4-3.64,7.68-3.25,1,6.26-3.17,6.7A3.88,3.88,0,0,1,100.15,365.24Z" style="opacity:0.2;isolation:isolate"></path><path d="M120.81,402.27s16.28-1.21,20.75,1.16,3.57,11.22-.74,11.51l-23.54,1.59Z" style="fill:#40AFFF"></path><path d="M140.82,414.94l-10.52.7-13,.89,3.07-12.39.46-1.87s16.28-1.21,20.75,1.16S145.13,414.64,140.82,414.94Z" style="fill:#fff;opacity:0.2"></path><path d="M130.3,415.64l-13,.89,3.07-12.39a16.74,16.74,0,0,1,3.15-1.38S129.44,406.07,130.3,415.64Z" style="opacity:0.2;isolation:isolate"></path><path d="M91.89,380.13c12.31-1.51,36,16.53,32.78,24.92s-25.51,17.63-33.5,11.15S77.82,381.85,91.89,380.13Z" style="fill:#40AFFF"></path><path d="M91.89,380.13c12.31-1.51,36,16.53,32.78,24.92s-25.51,17.63-33.5,11.15S77.82,381.85,91.89,380.13Z" style="fill:#fff;opacity:0.30000000000000004"></path><path d="M93.2,386.87c-14.38,2.38-20.23-21.45-1.12-24S109.83,384.12,93.2,386.87Z" style="fill:#40AFFF"></path><path d="M93.2,386.87c-14.38,2.38-20.23-21.45-1.12-24S109.83,384.12,93.2,386.87Z" style="fill:#fff;opacity:0.2"></path><path d="M85.14,388.29c3.75-.46,4.93,9.36,4.93,9.36s-1.2,16.82-5.42,14.81S79.64,389,85.14,388.29Z" style="fill:#40AFFF"></path><path d="M85.14,388.29c3.75-.46,4.93,9.36,4.93,9.36s-1.2,16.82-5.42,14.81S79.64,389,85.14,388.29Z" style="fill:#fff;opacity:0.2"></path><path d="M95,412.48c0-2.1,6.43-9.1,10.16-9.43s20.16,4.54,20.7,5.9-.36,6.76-5.18,8.67S95,419.85,95,412.48Z" style="fill:#40AFFF"></path><path d="M95,412.48c0-2.1,6.43-9.1,10.16-9.43s20.16,4.54,20.7,5.9-.36,6.76-5.18,8.67S95,419.85,95,412.48Z" style="fill:#fff;opacity:0.2"></path><path d="M93.7,377.67a1.55,1.55,0,1,1-1.8-1.23A1.55,1.55,0,0,1,93.7,377.67Z" style="fill:#2e353a"></path><path d="M105.45,376c-.34.79-1,1.26-1.47,1.06s-.58-1-.25-1.78,1-1.27,1.46-1.06S105.78,375.22,105.45,376Z" style="fill:#2e353a"></path><path d="M94.26,383c-1.24-1.93,4.46-5.93,6.77-6.09s4.75,1,3.78,3.18S96.25,386.12,94.26,383Z" style="fill:#40AFFF"></path><path d="M94.26,383c-1.24-1.93,4.46-5.93,6.77-6.09s4.75,1,3.78,3.18S96.25,386.12,94.26,383Z" style="fill:#fff;opacity:0.30000000000000004"></path><path d="M100.92,378.77l2.3-.67a.44.44,0,0,1,.49.66l-1.08,1.74a.44.44,0,0,1-.67.09l-1.21-1.07A.43.43,0,0,1,100.92,378.77Z" style="fill:#2e353a"></path><path d="M87.37,368.63a2.22,2.22,0,0,1-1.31,1.18c-1.24.84-3.74,5.53-3.74,5.53s.62,1.16-.9,2.32-5.59-2.58-5.4-6.24a7.35,7.35,0,0,1,6-6.71C85,364.2,87.89,367.19,87.37,368.63Z" style="fill:#40AFFF"></path><path d="M86.06,369.81c-1.24.84-3.74,5.53-3.74,5.53-6.27-.17-1.46-7.84.8-8.42S86.06,369.81,86.06,369.81Z" style="opacity:0.2;isolation:isolate"></path></g><g id="freepik--Hearts--inject-10"><path d="M291.74,165.08c-1.51-3.77-5.74-3.15-8.27-.86-1.61-3-5.39-5-8.07-2-4.53,5.13,1.83,11.71,4.91,14.39l.88.76,1.09-.42C286.08,175.49,294.28,171.43,291.74,165.08Z" style="fill:#40AFFF;isolation:isolate"></path><path d="M292,186.44c-.36-1.91-2.06-3.65-4-2.47-3.34,2-1,6.66.17,8.65l.34.56.66,0c2.32-.14,7.47-.92,7.19-4.8C296.13,186,293.73,185.64,292,186.44Z" style="fill:#40AFFF;isolation:isolate"></path><path d="M272.38,190.55c-.64-1-2-1.59-2.85-.47-1.43,1.89.94,4,2.07,4.85l.32.24.37-.17c1.28-.61,4-2.22,3-4.36C274.65,189.38,273.2,189.7,272.38,190.55Z" style="fill:#40AFFF;isolation:isolate"></path></g><g id="freepik--Characters--inject-10"><path d="M225.6,171s2.44-7.82,17.38-6.64,23.25,16.47,17.91,25.45-4.66,16.58-2.53,22.07,9.15,18.63-9,22.55-12.45,10.26-28.25,10.85-23.5-12.34-24.6-21.11,9-11.69,9.79-19.43S205.74,172,225.6,171Z" style="fill:#263238"></path><path d="M291,300.09c-.07,1.3-8.73,3.42-8.73,3.42L280.24,293l1.23-2.26s-12.81-12.8-18.32-18.9a27.82,27.82,0,0,1-2.37-2.86c-1.59-2.67-8.5-19.9-8.5-19.9l.29-7.75.62-16.35c6.31.2,14.13,38.64,14.13,38.64l20.2,24.91s2.54,1.22,2.7,1.81S291.11,298.78,291,300.09Z" style="fill:#eec1bb"></path><path d="M263.15,271.81a27.82,27.82,0,0,1-2.37-2.86c-1.59-2.67-8.5-19.9-8.5-19.9l.29-7.75,2.69-5.9S264.32,252,263.15,271.81Z" style="opacity:0.2;isolation:isolate"></path><path d="M257.88,246.69s-6.8,3.23-12.67,15.12,14.29-2.15,14.29-2.15Z" style="fill:#eec1bb"></path><path d="M173.59,408.89a12.91,12.91,0,0,0,3.48-3.23h0s5.72-2.86,19.27-.6l3.37-5.14a5.06,5.06,0,0,0-.28-5.79,2.57,2.57,0,0,0-.62-.61,32.84,32.84,0,0,0-4-2c-4.16-2-14.08-4.84-14.08-4.84l-.34,1,8.72,3.39c3,1.16-1.35,2.28-4.81,1.84s-7.38-.19-9.76,6.35C171.83,406.91,171.05,410.2,173.59,408.89Z" style="fill:#2e353a"></path><path d="M238.53,388l-37.25,8.32a11.85,11.85,0,0,0-1.85-2.23c-1.17,5.25-13.46,4.28-17.51,5.29s-4.85,6.24-4.85,6.24,3.63-1.42,10.76-1.08,13.43,1.07,13.43,1.07c13.61-.3,40.11-3.6,40.11-3.6Z" style="fill:#eec1bb"></path><path d="M238.53,388l-37.25,8.32a11.85,11.85,0,0,0-1.85-2.23c-1.17,5.25-13.46,4.28-17.51,5.29s-4.85,6.24-4.85,6.24,3.63-1.42,10.76-1.08,13.43,1.07,13.43,1.07c13.61-.3,40.11-3.6,40.11-3.6Z" style="opacity:0.2;isolation:isolate"></path><path d="M153.73,414.45a13.09,13.09,0,0,0,3.74-2.92h0s5.94-2.37,19.25,1l3.79-4.83a5.07,5.07,0,0,0,.22-5.8,3,3,0,0,0-.57-.66,35,35,0,0,0-3.78-2.34c-4-2.37-13.63-6-13.63-6l-.42,1,8.4,4.12c2.85,1.41-1.54,2.16-4.95,1.43s-7.33-.82-10.26,5.49C152.14,412.32,151.08,415.54,153.73,414.45Z" style="fill:#2e353a"></path><path d="M181.57,413.56s-6.2-1.25-13.29-2.2-10.81.17-10.81.17,1.25-5.15,5.36-5.81,16.28,1.34,17.9-3.79a12.15,12.15,0,0,1,1.65,2.38C183.07,405.66,181.57,413.56,181.57,413.56Z" style="fill:#eec1bb"></path><path d="M181.57,413.56c13.59.87,40.28-.17,40.28-.17l-1.65-14.21-37.82,5.13Z" style="fill:#eec1bb"></path><path d="M196.51,231.63c1,2.62.61,3.62,1.46,6,.94,2.52,1.81,4.89,2.58,7.13,1.87,5.28,3.32,9.85,4.49,13.9,3.58,12.51,4.19,36.57,4.19,36.57l48.28-3.38c3.36-44.76-4.33-66.87-4.33-66.87l-3.15-.24c-3.69-.26-10-.63-15.77-.59a162.44,162.44,0,0,0-20.33,1.93C209.36,226.73,202.05,227.92,196.51,231.63Z" style="fill:#40AFFF"></path><path d="M224.3,223.26c13-1.57,20.62,7.46,20.4,12.14s-10.2,1.51-10.2,1.51v8.34l-2.09-8.14s-6,3.95-12.3,1.38S212.83,224.64,224.3,223.26Z" style="fill:#fff"></path><path d="M232.5,235.4c-11-3.39-13.55-8.78-13.55-8.78,8.31-5.5,4.4-18.2,4.4-18.2l13.1,4.88a41.28,41.28,0,0,0-1.52,5.6c-1.52,8.21,2.18,8.93,2.18,8.93C238.72,232.69,232.5,235.4,232.5,235.4Z" style="fill:#eec1bb"></path><path d="M236.45,213.3a41.28,41.28,0,0,0-1.52,5.6c-8.39,2.13-11.58-10.48-11.58-10.48Z" style="opacity:0.2;isolation:isolate"></path><path d="M242.34,176.76c11.52,3.23,13.5,10.43,11,22.54-3.1,15.13-9.34,24.75-22.86,17.55C212.14,207.06,223.21,171.4,242.34,176.76Z" style="fill:#eec1bb"></path><path d="M246.09,196.57a25.21,25.21,0,0,0,2,5.72,3.28,3.28,0,0,1-3.4.45Z" style="fill:#d4827d"></path><path d="M239.27,193.83l1.57,1.21S239.13,195.27,239.27,193.83Z" style="fill:#263238"></path><path d="M239.27,193.83s-1.4.82-3.21-1.16a2.51,2.51,0,0,0,3.37,1.93Z" style="fill:#263238"></path><path d="M235.93,186.37a.38.38,0,0,1-.3-.16.36.36,0,0,1,.09-.5c2.5-1.77,5.7-.44,5.84-.38a.37.37,0,0,1,.19.48.38.38,0,0,1-.48.19s-3-1.23-5.13.3A.33.33,0,0,1,235.93,186.37Z" style="fill:#263238"></path><path d="M254.25,190.12A.34.34,0,0,1,254,190a5.16,5.16,0,0,0-4-2.1.38.38,0,0,1-.39-.34.37.37,0,0,1,.34-.39,5.88,5.88,0,0,1,4.62,2.36.35.35,0,0,1,0,.51A.38.38,0,0,1,254.25,190.12Z" style="fill:#263238"></path><path d="M224.31,192.64s8-7.95,9.27-15.49c0,0,25.44-2.92,20.07,20.56,0,0,8-20-11.68-26s-27.71,23-19.9,34.49C222.07,206.24,219.31,197.63,224.31,192.64Z" style="fill:#263238"></path><path d="M225.51,195.6a5.26,5.26,0,0,0-4.15-6.14c-3.68-.61-7.43,6.24.95,10.49C223.51,200.56,224.58,199.52,225.51,195.6Z" style="fill:#eec1bb"></path><path d="M243,207.88h0c-.05,0-5.28-.6-5.83-5.62a.36.36,0,0,1,.31-.39.35.35,0,0,1,.39.31c.49,4.45,5,5,5.21,5a.35.35,0,0,1,.31.39A.36.36,0,0,1,243,207.88Z" style="fill:#263238"></path><path d="M250.89,197l1.57,1.21S250.74,198.44,250.89,197Z" style="fill:#263238"></path><path d="M250.89,197s-1.4.81-3.21-1.17a2.51,2.51,0,0,0,3.37,1.93Z" style="fill:#263238"></path><path d="M306.19,394.06C309,412.53,288,414.42,281.51,415c-21.22,1.77-72.25,0-72.25,0L197.4,389.3l8.7-4.14s-22.79-51.31,3.13-90.3l48.28-3,4,23.65S295.28,358.24,306.19,394.06Z" style="fill:#40AFFF"></path><path d="M306.19,394.06C309,412.53,288,414.42,281.51,415c-21.22,1.77-72.25,0-72.25,0L197.4,389.3l8.7-4.14s-22.79-51.31,3.13-90.3l48.28-3,4,23.65S295.28,358.24,306.19,394.06Z" style="opacity:0.4;isolation:isolate"></path><path d="M216.69,298.74a.93.93,0,1,1-.93-.93A.93.93,0,0,1,216.69,298.74Z" style="fill:#fff;opacity:0.30000000000000004;isolation:isolate"></path><path d="M226.5,298.74a.93.93,0,1,1-.92-.93A.93.93,0,0,1,226.5,298.74Z" style="fill:#fff;opacity:0.30000000000000004;isolation:isolate"></path><path d="M236.32,298.74a.93.93,0,1,1-.93-.93A.93.93,0,0,1,236.32,298.74Z" style="fill:#fff;opacity:0.30000000000000004;isolation:isolate"></path><path d="M246.13,298.74a.93.93,0,1,1-.92-.93A.93.93,0,0,1,246.13,298.74Z" style="fill:#fff;opacity:0.30000000000000004;isolation:isolate"></path><path d="M256,298.74a.93.93,0,1,1-.93-.93A.93.93,0,0,1,256,298.74Z" style="fill:#fff;opacity:0.30000000000000004;isolation:isolate"></path><circle cx="210.85" cy="304.52" r="0.93" style="fill:#fff;opacity:0.30000000000000004;isolation:isolate"></circle><circle cx="220.67" cy="304.52" r="0.93" style="fill:#fff;opacity:0.30000000000000004;isolation:isolate"></circle><circle cx="230.48" cy="304.52" r="0.93" style="fill:#fff;opacity:0.30000000000000004;isolation:isolate"></circle><circle cx="240.3" cy="304.52" r="0.93" style="fill:#fff;opacity:0.30000000000000004;isolation:isolate"></circle><circle cx="250.11" cy="304.52" r="0.93" style="fill:#fff;opacity:0.30000000000000004;isolation:isolate"></circle><circle cx="257.93" cy="304.52" r="0.93" style="fill:#fff;opacity:0.30000000000000004;isolation:isolate"></circle><path d="M206.88,311.78a.93.93,0,1,1-.93-.93A.93.93,0,0,1,206.88,311.78Z" style="fill:#fff;opacity:0.30000000000000004;isolation:isolate"></path><path d="M216.69,311.78a.93.93,0,1,1-.93-.93A.93.93,0,0,1,216.69,311.78Z" style="fill:#fff;opacity:0.30000000000000004;isolation:isolate"></path><path d="M226.5,311.78a.93.93,0,1,1-.92-.93A.92.92,0,0,1,226.5,311.78Z" style="fill:#fff;opacity:0.30000000000000004;isolation:isolate"></path><path d="M236.32,311.78a.93.93,0,1,1-.93-.93A.93.93,0,0,1,236.32,311.78Z" style="fill:#fff;opacity:0.30000000000000004;isolation:isolate"></path><path d="M246.13,311.78a.93.93,0,1,1-.92-.93A.92.92,0,0,1,246.13,311.78Z" style="fill:#fff;opacity:0.30000000000000004;isolation:isolate"></path><path d="M256,311.78a.93.93,0,1,1-.93-.93A.93.93,0,0,1,256,311.78Z" style="fill:#fff;opacity:0.30000000000000004;isolation:isolate"></path><circle cx="201.04" cy="317.56" r="0.93" style="fill:#fff;opacity:0.30000000000000004;isolation:isolate"></circle><circle cx="210.85" cy="317.56" r="0.93" style="fill:#fff;opacity:0.30000000000000004;isolation:isolate"></circle><circle cx="220.67" cy="317.56" r="0.93" style="fill:#fff;opacity:0.30000000000000004;isolation:isolate"></circle><circle cx="230.48" cy="317.56" r="0.93" style="fill:#fff;opacity:0.30000000000000004;isolation:isolate"></circle><circle cx="240.3" cy="317.56" r="0.93" style="fill:#fff;opacity:0.30000000000000004;isolation:isolate"></circle><circle cx="250.11" cy="317.56" r="0.93" style="fill:#fff;opacity:0.30000000000000004;isolation:isolate"></circle><circle cx="259.93" cy="317.56" r="0.93" style="fill:#fff;opacity:0.30000000000000004;isolation:isolate"></circle><path d="M206.88,324.81a.93.93,0,1,1-.93-.92A.93.93,0,0,1,206.88,324.81Z" style="fill:#fff;opacity:0.30000000000000004;isolation:isolate"></path><path d="M216.69,324.81a.93.93,0,1,1-.93-.92A.93.93,0,0,1,216.69,324.81Z" style="fill:#fff;opacity:0.30000000000000004;isolation:isolate"></path><path d="M226.5,324.81a.93.93,0,1,1-.92-.92A.92.92,0,0,1,226.5,324.81Z" style="fill:#fff;opacity:0.30000000000000004;isolation:isolate"></path><path d="M236.32,324.81a.93.93,0,1,1-.93-.92A.93.93,0,0,1,236.32,324.81Z" style="fill:#fff;opacity:0.30000000000000004;isolation:isolate"></path><path d="M246.13,324.81a.93.93,0,1,1-.92-.92A.92.92,0,0,1,246.13,324.81Z" style="fill:#fff;opacity:0.30000000000000004;isolation:isolate"></path><path d="M256,324.81a.93.93,0,1,1-.93-.92A.93.93,0,0,1,256,324.81Z" style="fill:#fff;opacity:0.30000000000000004;isolation:isolate"></path><circle cx="264.84" cy="324.81" r="0.93" style="fill:#fff;opacity:0.30000000000000004;isolation:isolate"></circle><circle cx="201.04" cy="330.6" r="0.93" style="fill:#fff;opacity:0.30000000000000004;isolation:isolate"></circle><circle cx="210.85" cy="330.6" r="0.93" style="fill:#fff;opacity:0.30000000000000004;isolation:isolate"></circle><circle cx="220.67" cy="330.6" r="0.93" style="fill:#fff;opacity:0.30000000000000004;isolation:isolate"></circle><circle cx="230.48" cy="330.6" r="0.93" style="fill:#fff;opacity:0.30000000000000004;isolation:isolate"></circle><circle cx="240.3" cy="330.6" r="0.93" style="fill:#fff;opacity:0.30000000000000004;isolation:isolate"></circle><circle cx="250.11" cy="330.6" r="0.93" style="fill:#fff;opacity:0.30000000000000004;isolation:isolate"></circle><circle cx="259.93" cy="330.6" r="0.93" style="fill:#fff;opacity:0.30000000000000004;isolation:isolate"></circle><circle cx="269.74" cy="330.6" r="0.93" style="fill:#fff;opacity:0.30000000000000004;isolation:isolate"></circle><path d="M206.88,337.85a.93.93,0,1,1-.93-.93A.93.93,0,0,1,206.88,337.85Z" style="fill:#fff;opacity:0.30000000000000004;isolation:isolate"></path><path d="M216.69,337.85a.93.93,0,1,1-.93-.93A.93.93,0,0,1,216.69,337.85Z" style="fill:#fff;opacity:0.30000000000000004;isolation:isolate"></path><path d="M226.5,337.85a.93.93,0,1,1-.92-.93A.93.93,0,0,1,226.5,337.85Z" style="fill:#fff;opacity:0.30000000000000004;isolation:isolate"></path><path d="M236.32,337.85a.93.93,0,1,1-.93-.93A.93.93,0,0,1,236.32,337.85Z" style="fill:#fff;opacity:0.30000000000000004;isolation:isolate"></path><path d="M246.13,337.85a.93.93,0,1,1-.92-.93A.93.93,0,0,1,246.13,337.85Z" style="fill:#fff;opacity:0.30000000000000004;isolation:isolate"></path><path d="M256,337.85a.93.93,0,1,1-.93-.93A.93.93,0,0,1,256,337.85Z" style="fill:#fff;opacity:0.30000000000000004;isolation:isolate"></path><circle cx="264.84" cy="337.85" r="0.93" style="fill:#fff;opacity:0.30000000000000004;isolation:isolate"></circle><circle cx="274.65" cy="337.85" r="0.93" style="fill:#fff;opacity:0.30000000000000004;isolation:isolate"></circle><circle cx="201.04" cy="343.63" r="0.93" style="fill:#fff;opacity:0.30000000000000004;isolation:isolate"></circle><circle cx="210.85" cy="343.63" r="0.93" style="fill:#fff;opacity:0.30000000000000004;isolation:isolate"></circle><circle cx="220.67" cy="343.63" r="0.93" style="fill:#fff;opacity:0.30000000000000004;isolation:isolate"></circle><circle cx="230.48" cy="343.63" r="0.93" style="fill:#fff;opacity:0.30000000000000004;isolation:isolate"></circle><circle cx="240.3" cy="343.63" r="0.93" style="fill:#fff;opacity:0.30000000000000004;isolation:isolate"></circle><circle cx="250.11" cy="343.63" r="0.93" style="fill:#fff;opacity:0.30000000000000004;isolation:isolate"></circle><circle cx="259.93" cy="343.63" r="0.93" style="fill:#fff;opacity:0.30000000000000004;isolation:isolate"></circle><circle cx="269.74" cy="343.63" r="0.93" style="fill:#fff;opacity:0.30000000000000004;isolation:isolate"></circle><circle cx="279.56" cy="343.63" r="0.93" style="fill:#fff;opacity:0.30000000000000004;isolation:isolate"></circle><path d="M206.88,350.89A.93.93,0,1,1,206,350,.93.93,0,0,1,206.88,350.89Z" style="fill:#fff;opacity:0.30000000000000004;isolation:isolate"></path><path d="M216.69,350.89a.93.93,0,1,1-.93-.93A.93.93,0,0,1,216.69,350.89Z" style="fill:#fff;opacity:0.30000000000000004;isolation:isolate"></path><path d="M226.5,350.89a.93.93,0,1,1-.92-.93A.93.93,0,0,1,226.5,350.89Z" style="fill:#fff;opacity:0.30000000000000004;isolation:isolate"></path><path d="M236.32,350.89a.93.93,0,1,1-.93-.93A.93.93,0,0,1,236.32,350.89Z" style="fill:#fff;opacity:0.30000000000000004;isolation:isolate"></path><path d="M246.13,350.89a.93.93,0,1,1-.92-.93A.93.93,0,0,1,246.13,350.89Z" style="fill:#fff;opacity:0.30000000000000004;isolation:isolate"></path><path d="M256,350.89A.93.93,0,1,1,255,350,.93.93,0,0,1,256,350.89Z" style="fill:#fff;opacity:0.30000000000000004;isolation:isolate"></path><circle cx="264.84" cy="350.89" r="0.93" style="fill:#fff;opacity:0.30000000000000004;isolation:isolate"></circle><circle cx="274.65" cy="350.89" r="0.93" style="fill:#fff;opacity:0.30000000000000004;isolation:isolate"></circle><circle cx="201.04" cy="356.67" r="0.93" style="fill:#fff;opacity:0.30000000000000004;isolation:isolate"></circle><circle cx="210.85" cy="356.67" r="0.93" style="fill:#fff;opacity:0.30000000000000004;isolation:isolate"></circle><circle cx="220.67" cy="356.67" r="0.93" style="fill:#fff;opacity:0.30000000000000004;isolation:isolate"></circle><circle cx="230.48" cy="356.67" r="0.93" style="fill:#fff;opacity:0.30000000000000004;isolation:isolate"></circle><circle cx="240.3" cy="356.67" r="0.93" style="fill:#fff;opacity:0.30000000000000004;isolation:isolate"></circle><circle cx="250.11" cy="356.67" r="0.93" style="fill:#fff;opacity:0.30000000000000004;isolation:isolate"></circle><circle cx="259.93" cy="356.67" r="0.93" style="fill:#fff;opacity:0.30000000000000004;isolation:isolate"></circle><circle cx="269.74" cy="356.67" r="0.93" style="fill:#fff;opacity:0.30000000000000004;isolation:isolate"></circle><circle cx="279.56" cy="356.67" r="0.93" style="fill:#fff;opacity:0.30000000000000004;isolation:isolate"></circle><path d="M206.88,363.92A.93.93,0,1,1,206,363,.93.93,0,0,1,206.88,363.92Z" style="fill:#fff;opacity:0.30000000000000004;isolation:isolate"></path><path d="M216.69,363.92a.93.93,0,1,1-.93-.92A.93.93,0,0,1,216.69,363.92Z" style="fill:#fff;opacity:0.30000000000000004;isolation:isolate"></path><path d="M226.5,363.92a.93.93,0,1,1-.92-.92A.92.92,0,0,1,226.5,363.92Z" style="fill:#fff;opacity:0.30000000000000004;isolation:isolate"></path><path d="M236.32,363.92a.93.93,0,1,1-.93-.92A.93.93,0,0,1,236.32,363.92Z" style="fill:#fff;opacity:0.30000000000000004;isolation:isolate"></path><path d="M246.13,363.92a.93.93,0,1,1-.92-.92A.92.92,0,0,1,246.13,363.92Z" style="fill:#fff;opacity:0.30000000000000004;isolation:isolate"></path><path d="M256,363.92A.93.93,0,1,1,255,363,.93.93,0,0,1,256,363.92Z" style="fill:#fff;opacity:0.30000000000000004;isolation:isolate"></path><circle cx="264.84" cy="363.92" r="0.93" style="fill:#fff;opacity:0.30000000000000004;isolation:isolate"></circle><circle cx="274.65" cy="363.92" r="0.93" style="fill:#fff;opacity:0.30000000000000004;isolation:isolate"></circle><circle cx="284.47" cy="363.92" r="0.93" style="fill:#fff;opacity:0.30000000000000004;isolation:isolate"></circle><path d="M211.78,369.71a.93.93,0,1,1-.93-.93A.92.92,0,0,1,211.78,369.71Z" style="fill:#fff;opacity:0.30000000000000004;isolation:isolate"></path><path d="M221.6,369.71a.93.93,0,1,1-.93-.93A.93.93,0,0,1,221.6,369.71Z" style="fill:#fff;opacity:0.30000000000000004;isolation:isolate"></path><path d="M231.41,369.71a.93.93,0,1,1-.93-.93A.92.92,0,0,1,231.41,369.71Z" style="fill:#fff;opacity:0.30000000000000004;isolation:isolate"></path><path d="M241.23,369.71a.93.93,0,1,1-.93-.93A.93.93,0,0,1,241.23,369.71Z" style="fill:#fff;opacity:0.30000000000000004;isolation:isolate"></path><path d="M251,369.71a.93.93,0,1,1-.93-.93A.92.92,0,0,1,251,369.71Z" style="fill:#fff;opacity:0.30000000000000004;isolation:isolate"></path><path d="M260.86,369.71a.93.93,0,1,1-.93-.93A.93.93,0,0,1,260.86,369.71Z" style="fill:#fff;opacity:0.30000000000000004;isolation:isolate"></path><path d="M270.67,369.71a.93.93,0,1,1-.93-.93A.92.92,0,0,1,270.67,369.71Z" style="fill:#fff;opacity:0.30000000000000004;isolation:isolate"></path><path d="M280.49,369.71a.93.93,0,1,1-.93-.93A.93.93,0,0,1,280.49,369.71Z" style="fill:#fff;opacity:0.30000000000000004;isolation:isolate"></path><path d="M290.3,369.71a.93.93,0,1,1-.93-.93A.93.93,0,0,1,290.3,369.71Z" style="fill:#fff;opacity:0.30000000000000004;isolation:isolate"></path><path d="M206.88,377A.93.93,0,1,1,206,376,.93.93,0,0,1,206.88,377Z" style="fill:#fff;opacity:0.30000000000000004;isolation:isolate"></path><path d="M216.69,377a.93.93,0,1,1-.93-.93A.93.93,0,0,1,216.69,377Z" style="fill:#fff;opacity:0.30000000000000004;isolation:isolate"></path><path d="M226.5,377a.93.93,0,1,1-.92-.93A.93.93,0,0,1,226.5,377Z" style="fill:#fff;opacity:0.30000000000000004;isolation:isolate"></path><path d="M236.32,377a.93.93,0,1,1-.93-.93A.93.93,0,0,1,236.32,377Z" style="fill:#fff;opacity:0.30000000000000004;isolation:isolate"></path><path d="M246.13,377a.93.93,0,1,1-.92-.93A.93.93,0,0,1,246.13,377Z" style="fill:#fff;opacity:0.30000000000000004;isolation:isolate"></path><path d="M256,377A.93.93,0,1,1,255,376,.93.93,0,0,1,256,377Z" style="fill:#fff;opacity:0.30000000000000004;isolation:isolate"></path><circle cx="264.84" cy="376.96" r="0.93" style="fill:#fff;opacity:0.30000000000000004;isolation:isolate"></circle><circle cx="274.65" cy="376.96" r="0.93" style="fill:#fff;opacity:0.30000000000000004;isolation:isolate"></circle><circle cx="284.47" cy="376.96" r="0.93" style="fill:#fff;opacity:0.30000000000000004;isolation:isolate"></circle><circle cx="294.28" cy="376.96" r="0.93" style="fill:#fff;opacity:0.30000000000000004;isolation:isolate"></circle><path d="M211.78,382.74a.93.93,0,1,1-.93-.92A.92.92,0,0,1,211.78,382.74Z" style="fill:#fff;opacity:0.30000000000000004;isolation:isolate"></path><path d="M221.6,382.74a.93.93,0,1,1-.93-.92A.93.93,0,0,1,221.6,382.74Z" style="fill:#fff;opacity:0.30000000000000004;isolation:isolate"></path><path d="M231.41,382.74a.93.93,0,1,1-.93-.92A.92.92,0,0,1,231.41,382.74Z" style="fill:#fff;opacity:0.30000000000000004;isolation:isolate"></path><path d="M241.23,382.74a.93.93,0,1,1-.93-.92A.93.93,0,0,1,241.23,382.74Z" style="fill:#fff;opacity:0.30000000000000004;isolation:isolate"></path><path d="M251,382.74a.93.93,0,1,1-.93-.92A.92.92,0,0,1,251,382.74Z" style="fill:#fff;opacity:0.30000000000000004;isolation:isolate"></path><path d="M260.86,382.74a.93.93,0,1,1-.93-.92A.93.93,0,0,1,260.86,382.74Z" style="fill:#fff;opacity:0.30000000000000004;isolation:isolate"></path><path d="M270.67,382.74a.93.93,0,1,1-.93-.92A.92.92,0,0,1,270.67,382.74Z" style="fill:#fff;opacity:0.30000000000000004;isolation:isolate"></path><path d="M280.49,382.74a.93.93,0,1,1-.93-.92A.93.93,0,0,1,280.49,382.74Z" style="fill:#fff;opacity:0.30000000000000004;isolation:isolate"></path><path d="M290.3,382.74a.93.93,0,1,1-.93-.92A.93.93,0,0,1,290.3,382.74Z" style="fill:#fff;opacity:0.30000000000000004;isolation:isolate"></path><path d="M300.11,382.74a.93.93,0,1,1-.92-.92A.92.92,0,0,1,300.11,382.74Z" style="fill:#fff;opacity:0.30000000000000004;isolation:isolate"></path><path d="M206.88,390a.93.93,0,1,1-.93-.93A.93.93,0,0,1,206.88,390Z" style="fill:#fff;opacity:0.30000000000000004;isolation:isolate"></path><path d="M216.69,390a.93.93,0,1,1-.93-.93A.93.93,0,0,1,216.69,390Z" style="fill:#fff;opacity:0.30000000000000004;isolation:isolate"></path><path d="M226.5,390a.93.93,0,1,1-.92-.93A.93.93,0,0,1,226.5,390Z" style="fill:#fff;opacity:0.30000000000000004;isolation:isolate"></path><path d="M236.32,390a.93.93,0,1,1-.93-.93A.93.93,0,0,1,236.32,390Z" style="fill:#fff;opacity:0.30000000000000004;isolation:isolate"></path><path d="M246.13,390a.93.93,0,1,1-.92-.93A.93.93,0,0,1,246.13,390Z" style="fill:#fff;opacity:0.30000000000000004;isolation:isolate"></path><path d="M256,390a.93.93,0,1,1-.93-.93A.93.93,0,0,1,256,390Z" style="fill:#fff;opacity:0.30000000000000004;isolation:isolate"></path><circle cx="264.84" cy="390" r="0.93" style="fill:#fff;opacity:0.30000000000000004;isolation:isolate"></circle><circle cx="274.65" cy="390" r="0.93" style="fill:#fff;opacity:0.30000000000000004;isolation:isolate"></circle><circle cx="284.47" cy="390" r="0.93" style="fill:#fff;opacity:0.30000000000000004;isolation:isolate"></circle><circle cx="294.28" cy="390" r="0.93" style="fill:#fff;opacity:0.30000000000000004;isolation:isolate"></circle><circle cx="303.09" cy="390" r="0.93" style="fill:#fff;opacity:0.30000000000000004;isolation:isolate"></circle><path d="M211.78,395.78a.93.93,0,1,1-.93-.93A.93.93,0,0,1,211.78,395.78Z" style="fill:#fff;opacity:0.30000000000000004;isolation:isolate"></path><path d="M221.6,395.78a.93.93,0,1,1-.93-.93A.93.93,0,0,1,221.6,395.78Z" style="fill:#fff;opacity:0.30000000000000004;isolation:isolate"></path><path d="M231.41,395.78a.93.93,0,1,1-.93-.93A.93.93,0,0,1,231.41,395.78Z" style="fill:#fff;opacity:0.30000000000000004;isolation:isolate"></path><path d="M241.23,395.78a.93.93,0,1,1-.93-.93A.93.93,0,0,1,241.23,395.78Z" style="fill:#fff;opacity:0.30000000000000004;isolation:isolate"></path><path d="M251,395.78a.93.93,0,1,1-.93-.93A.93.93,0,0,1,251,395.78Z" style="fill:#fff;opacity:0.30000000000000004;isolation:isolate"></path><path d="M260.86,395.78a.93.93,0,1,1-.93-.93A.93.93,0,0,1,260.86,395.78Z" style="fill:#fff;opacity:0.30000000000000004;isolation:isolate"></path><path d="M270.67,395.78a.93.93,0,1,1-.93-.93A.93.93,0,0,1,270.67,395.78Z" style="fill:#fff;opacity:0.30000000000000004;isolation:isolate"></path><path d="M280.49,395.78a.93.93,0,1,1-.93-.93A.93.93,0,0,1,280.49,395.78Z" style="fill:#fff;opacity:0.30000000000000004;isolation:isolate"></path><path d="M290.3,395.78a.93.93,0,1,1-.93-.93A.93.93,0,0,1,290.3,395.78Z" style="fill:#fff;opacity:0.30000000000000004;isolation:isolate"></path><path d="M300.11,395.78a.93.93,0,1,1-.92-.93A.93.93,0,0,1,300.11,395.78Z" style="fill:#fff;opacity:0.30000000000000004;isolation:isolate"></path><path d="M206.88,403a.93.93,0,1,1-.93-.93A.93.93,0,0,1,206.88,403Z" style="fill:#fff;opacity:0.30000000000000004;isolation:isolate"></path><path d="M216.69,403a.93.93,0,1,1-.93-.93A.93.93,0,0,1,216.69,403Z" style="fill:#fff;opacity:0.30000000000000004;isolation:isolate"></path><path d="M226.5,403a.93.93,0,1,1-.92-.93A.92.92,0,0,1,226.5,403Z" style="fill:#fff;opacity:0.30000000000000004;isolation:isolate"></path><path d="M236.32,403a.93.93,0,1,1-.93-.93A.93.93,0,0,1,236.32,403Z" style="fill:#fff;opacity:0.30000000000000004;isolation:isolate"></path><path d="M246.13,403a.93.93,0,1,1-.92-.93A.92.92,0,0,1,246.13,403Z" style="fill:#fff;opacity:0.30000000000000004;isolation:isolate"></path><path d="M256,403a.93.93,0,1,1-.93-.93A.93.93,0,0,1,256,403Z" style="fill:#fff;opacity:0.30000000000000004;isolation:isolate"></path><path d="M265.76,403a.93.93,0,1,1-.92-.93A.92.92,0,0,1,265.76,403Z" style="fill:#fff;opacity:0.30000000000000004;isolation:isolate"></path><path d="M275.58,403a.93.93,0,1,1-.93-.93A.93.93,0,0,1,275.58,403Z" style="fill:#fff;opacity:0.30000000000000004;isolation:isolate"></path><path d="M285.39,403a.93.93,0,1,1-.92-.93A.92.92,0,0,1,285.39,403Z" style="fill:#fff;opacity:0.30000000000000004;isolation:isolate"></path><path d="M295.21,403a.93.93,0,1,1-.93-.93A.93.93,0,0,1,295.21,403Z" style="fill:#fff;opacity:0.30000000000000004;isolation:isolate"></path><path d="M305,403a.93.93,0,1,1-.93-.93A.92.92,0,0,1,305,403Z" style="fill:#fff;opacity:0.30000000000000004;isolation:isolate"></path><path d="M211.78,408.82a.93.93,0,1,1-.93-.93A.93.93,0,0,1,211.78,408.82Z" style="fill:#fff;opacity:0.30000000000000004;isolation:isolate"></path><path d="M221.6,408.82a.93.93,0,1,1-.93-.93A.93.93,0,0,1,221.6,408.82Z" style="fill:#fff;opacity:0.30000000000000004;isolation:isolate"></path><path d="M231.41,408.82a.93.93,0,1,1-.93-.93A.93.93,0,0,1,231.41,408.82Z" style="fill:#fff;opacity:0.30000000000000004;isolation:isolate"></path><path d="M241.23,408.82a.93.93,0,1,1-.93-.93A.93.93,0,0,1,241.23,408.82Z" style="fill:#fff;opacity:0.30000000000000004;isolation:isolate"></path><path d="M251,408.82a.93.93,0,1,1-.93-.93A.93.93,0,0,1,251,408.82Z" style="fill:#fff;opacity:0.30000000000000004;isolation:isolate"></path><path d="M260.86,408.82a.93.93,0,1,1-.93-.93A.93.93,0,0,1,260.86,408.82Z" style="fill:#fff;opacity:0.30000000000000004;isolation:isolate"></path><path d="M270.67,408.82a.93.93,0,1,1-.93-.93A.93.93,0,0,1,270.67,408.82Z" style="fill:#fff;opacity:0.30000000000000004;isolation:isolate"></path><path d="M280.49,408.82a.93.93,0,1,1-.93-.93A.93.93,0,0,1,280.49,408.82Z" style="fill:#fff;opacity:0.30000000000000004;isolation:isolate"></path><path d="M290.3,408.82a.93.93,0,1,1-.93-.93A.93.93,0,0,1,290.3,408.82Z" style="fill:#fff;opacity:0.30000000000000004;isolation:isolate"></path><path d="M300.11,408.82a.93.93,0,1,1-.92-.93A.93.93,0,0,1,300.11,408.82Z" style="fill:#fff;opacity:0.30000000000000004;isolation:isolate"></path><g id="freepik--group--inject-10"><path d="M355.48,356.71l-5.06,7.54s-20.51-5.63-45-22.82a186.55,186.55,0,0,1-19.93-16.12L295,311.17a130.35,130.35,0,0,0,20.34,21.76C335.8,350.41,355.48,356.71,355.48,356.71Z" style="fill:#eec1bb"></path><path d="M295.19,406.51l-8.65,2.76s-18.23-25-25.6-65q-.54-2.91-1-5.92l16.23-5.16a128.1,128.1,0,0,0,.26,13.94C279,382.29,295.19,406.51,295.19,406.51Z" style="fill:#eec1bb"></path><path d="M276.44,347.14a110.53,110.53,0,0,1-15.5-2.86q-.54-2.91-1-5.92l16.23-5.16A128.1,128.1,0,0,0,276.44,347.14Z" style="opacity:0.2;isolation:isolate"></path><path d="M315.31,332.93a67.67,67.67,0,0,1-9.9,8.5,186.55,186.55,0,0,1-19.93-16.12L295,311.17A130.35,130.35,0,0,0,315.31,332.93Z" style="opacity:0.2;isolation:isolate"></path><path d="M294.32,238.56a74.92,74.92,0,0,1-7.74-24.78s-1.84.81-4.48,2.11c-2.09-3.67-4.67-6.48-6.92-7.47-8.29-3.62-29.69,3.42-25.26,19,1.57,5.49-1.38,18.47,13.69,18.68,1.87,4.08,5.65,7.6,12.67,9C293.46,258.73,298.28,246.6,294.32,238.56Z" style="fill:#263238"></path><path d="M284.7,405.7l8.85-2.62a.58.58,0,0,1,.74.36h0l2.51,6.88a1.46,1.46,0,0,1-1,1.81c-3.1.86-4.63,1.12-8.53,2.24-2.39.71-7.05,2.32-10.47,2.76s-3.77-2.94-2.36-3.43c3.33-1.18,7.29-4.74,9-7.15A2.29,2.29,0,0,1,284.7,405.7Z" style="fill:#40AFFF"></path><path d="M280.71,407.92a1,1,0,0,1-.53-1,.72.72,0,0,1,.27-.65c.85-.66,3.54.2,3.84.3a.23.23,0,0,1,.13.17.17.17,0,0,1-.1.18,9.92,9.92,0,0,1-2,.91A2.18,2.18,0,0,1,280.71,407.92Zm0-1.27a.34.34,0,0,0-.13.32.73.73,0,0,0,.32.62c.49.25,1.53,0,2.86-.71-1.09-.31-2.59-.58-3.05-.23Z" style="fill:#40AFFF"></path><path d="M284.18,407c-.92-.23-2.58-1.53-2.66-2.44a.73.73,0,0,1,.5-.75,1,1,0,0,1,.86,0c1,.54,1.52,2.88,1.54,3a.2.2,0,0,1-.06.18h-.08A.11.11,0,0,1,284.18,407Zm-2-2.81c-.25.1-.28.25-.27.37.09.59,1.2,1.61,2,2-.2-.75-.64-2-1.25-2.35a.61.61,0,0,0-.44,0Z" style="fill:#40AFFF"></path><path d="M348.48,362.68l6.78-6.26a.59.59,0,0,1,.83,0h0l5.29,5.07a1.45,1.45,0,0,1-.07,2c-2.4,2.14-3.66,3-6.67,5.78-1.83,1.68-5.3,5.19-8.18,7.09s-4.68-1-3.63-2c2.48-2.53,4.46-7.47,4.93-10.38A2.34,2.34,0,0,1,348.48,362.68Z" style="fill:#40AFFF"></path><path d="M345.87,366.44a1,1,0,0,1-.9-.63.73.73,0,0,1,0-.7c.48-1,3.27-1.38,3.59-1.43a.22.22,0,0,1,.18.1.15.15,0,0,1,0,.2,10,10,0,0,1-1.41,1.71A2.21,2.21,0,0,1,345.87,366.44Zm-.57-1.13a.34.34,0,0,0,0,.34.7.7,0,0,0,.57.41c.54,0,1.36-.69,2.25-1.89-1.12.2-2.59.62-2.84,1.14Z" style="fill:#40AFFF"></path><path d="M348.59,364.09c-.93.2-3-.24-3.46-1a.73.73,0,0,1,.11-.9,1,1,0,0,1,.79-.36c1.15,0,2.63,1.92,2.68,2a.22.22,0,0,1,0,.18.08.08,0,0,1-.06,0S348.63,364.08,348.59,364.09Zm-3-1.64c-.18.2-.14.35-.07.44a4,4,0,0,0,2.72.89c-.51-.58-1.47-1.54-2.16-1.55a.53.53,0,0,0-.42.15Z" style="fill:#40AFFF"></path><path d="M298.7,285.68c-.19-23.18-5.83-37.63-5.83-37.63s-4.09-6-18.89-4.82-16.1,3.46-16.1,3.46c1.42,15.57-2.88,36.18-4,43.86-4.14,7-6.66,32.61-3.38,50.4,0,0,7.43,3.65,30.3.87,18.8-2.28,36.08-11.35,36.08-11.35C305.53,320.18,301.14,287.06,298.7,285.68Z" style="fill:#40AFFF"></path><path d="M316.87,330.47s-17.27,9.07-36.08,11.35c-22.86,2.78-30.3-.87-30.3-.87-1.81-9.87-1.85-22.15-.81-32.33.14-1.45.31-2.86.5-4.21.11-.78.23-1.54.35-2.28.31-1.9.66-3.65,1.05-5.22a24.77,24.77,0,0,1,2.29-6.36c.43-2.95,1.33-7.8,2.2-13.54.14-.92.27-1.87.41-2.84a143.84,143.84,0,0,0,1.65-22.7h0c0-1-.05-2-.11-3,0-.59-.09-1.17-.14-1.75,0,0,.18-.31,1.18-.77a20.69,20.69,0,0,1,3.92-1.2h0a83.93,83.93,0,0,1,11-1.49c11.7-1,16.7,2.61,18.29,4.15a4.51,4.51,0,0,1,.6.67s.75,1.92,1.71,5.48c.18.66.36,1.38.56,2.16s.46,1.93.68,3c.16.72.31,1.46.46,2.24.1.47.19,1,.28,1.45h0a137.36,137.36,0,0,1,2.14,23.28c.61.35,1.35,2.7,2.29,6.18s2.06,8.05,3.47,12.91C307.28,314.5,311.21,325.33,316.87,330.47Z" style="fill:#fff;opacity:0.5;isolation:isolate"></path><path d="M283,245.61a12.92,12.92,0,0,1-11.51,6.66c-4.53,0-4.63-4.59-4.63-4.59a8.23,8.23,0,0,0,1.31-2c2.18-4.87-2.51-9.1-2.51-9.1l4.89-1.83,10.73-4C277.25,240,283,245.61,283,245.61Z" style="fill:#eec1bb"></path><path d="M279.81,234.71s-4.26,10.1-11.62,10.93c2.18-4.87-2.51-9.1-2.51-9.1l4.89-1.83Z" style="opacity:0.2;isolation:isolate"></path><path d="M251.35,209.83s-8,12.84,7.64,18.55C276.65,234.82,251.35,209.83,251.35,209.83Z" style="fill:#263238"></path><path d="M283.27,215.85c2.27,8.75.65,19.83-6,23.5-12.21,6.74-18.13,6-22.82-3.2-4.26-8.23-5.82-23,4.07-29.16S280.12,203.71,283.27,215.85Z" style="fill:#eec1bb"></path><path d="M252,216a24.94,24.94,0,0,0,12.85-3.49s10.52.59,11.37,6.83,3.68,5.63,6.56,13.29c0,0,7.75-3.71,3.27-21.11-3.26-12.68-15.62-13.85-26.58-9.91C250.28,204.86,246,213.72,252,216Z" style="fill:#263238"></path><path d="M259.8,220.3a.6.6,0,0,1-.25-.2.54.54,0,0,1,.23-.7,5.08,5.08,0,0,1,4.72-.08.52.52,0,0,1,.19.7h0a.54.54,0,0,1-.71.19h0a4,4,0,0,0-3.75.15A.58.58,0,0,1,259.8,220.3Z" style="fill:#263238"></path><path d="M251.4,223.26a.59.59,0,0,1-.32-.06.53.53,0,0,1-.13-.72,5.1,5.1,0,0,1,4.1-2.33.53.53,0,0,1,.51.53h0a.55.55,0,0,1-.53.51h0a4,4,0,0,0-3.23,1.91A.55.55,0,0,1,251.4,223.26Z" style="fill:#263238"></path><path d="M257.76,227.82l2.53,4.33a6.23,6.23,0,0,1-3.56.84A14.47,14.47,0,0,0,257.76,227.82Z" style="fill:#d58745"></path><path d="M275.39,224.28s.6-6,3.85-5.21,5.52,9.78,1.47,11.07S274.46,227.7,275.39,224.28Z" style="fill:#eec1bb"></path><path d="M262.1,235.57a.35.35,0,0,1-.05-.7c.19,0,4.52-.7,4.58-5.12a.35.35,0,1,1,.7,0c-.06,5-5.13,5.8-5.18,5.81Z" style="fill:#263238"></path><path d="M261.18,226.34s1.88,1.06,3.44-1.19c0,0-.65,3.13-3.33,2l-.52.26Z" style="fill:#263238"></path><path d="M253.41,228.42s1.53,1.3,3.16-.72c0,0-.93,3-3.16,1.57l-.48.19Z" style="fill:#263238"></path><path d="M268.32,209.15s-.63,4.63-9.81,7.78a12.37,12.37,0,0,0-8.59,10.51s-8.51-12.36,3.29-22.23C262.43,197.49,268.32,209.15,268.32,209.15Z" style="fill:#263238"></path><path d="M297.43,316.72c2.44.58,1.59,4.68,1.59,4.68s2.83-1.32,4,1.05-3.16,3-3.16,3,2.49,2.63.39,4.08-4.08-2.9-4.08-2.9-.8,3.43-3.83,1.45,1.27-4.85,1.27-4.85-3.82-.87-2.18-4,4,1.24,4,1.24S295.15,316.17,297.43,316.72Z" style="opacity:0.2;isolation:isolate"></path><path d="M296.93,321.86c2.13.64,1.39,3.61-.39,3S295,321.27,296.93,321.86Z" style="fill:#40AFFF"></path><path d="M304.46,304.77c-2.07,1.26-4-3-4-3s-.8,3.43-3.83,1.46,1.28-4.86,1.28-4.86-3.83-.86-2.18-4,4,1.24,4,1.24-.19-3.29,1.29-3.75C301.92,295.32,303.05,299.91,304.46,304.77Z" style="opacity:0.2;isolation:isolate"></path><path d="M301.23,297c2.13.64,1.38,3.61-.4,3S299.28,296.4,301.23,297Z" style="fill:#40AFFF"></path><path d="M274.43,299.58c2.44.58,1.59,4.68,1.59,4.68s2.83-1.32,4,1.06-3.16,3-3.16,3,2.49,2.64.39,4.09-4.08-2.9-4.08-2.9-.8,3.43-3.83,1.45,1.27-4.86,1.27-4.86-3.82-.86-2.17-4,3.95,1.24,3.95,1.24S272.15,299,274.43,299.58Z" style="opacity:0.2;isolation:isolate"></path><path d="M273.93,304.72c2.13.65,1.39,3.61-.39,3S272,304.13,273.93,304.72Z" style="fill:#40AFFF"></path><path d="M266.52,324.56c2.43.58,1.59,4.68,1.59,4.68s2.83-1.32,4,1.05-3.16,3-3.16,3,2.49,2.63.39,4.08-4.09-2.9-4.09-2.9-.79,3.43-3.82,1.45,1.27-4.85,1.27-4.85-3.82-.87-2.18-4,4,1.23,4,1.23S264.24,324,266.52,324.56Z" style="opacity:0.2;isolation:isolate"></path><path d="M266,329.7c2.13.64,1.39,3.61-.39,3S264.07,329.11,266,329.7Z" style="fill:#40AFFF"></path><path d="M254.41,305.73s2.49,2.64.38,4.09-4.08-2.9-4.08-2.9a3.42,3.42,0,0,1-1,1.7c.14-1.45.31-2.86.5-4.21.11-.78.23-1.54.35-2.28.31-1.9.66-3.65,1.05-5.22a1.89,1.89,0,0,1,.39,0c2.43.59,1.59,4.68,1.59,4.68s2.82-1.31,4,1.06S254.41,305.73,254.41,305.73Z" style="opacity:0.2;isolation:isolate"></path><path d="M251.08,305.12a1.59,1.59,0,0,1-.9-.71c.11-.78.23-1.54.35-2.28a1.35,1.35,0,0,1,.94,0C253.6,302.75,252.86,305.72,251.08,305.12Z" style="fill:#40AFFF"></path><path d="M284.4,271.94c2.44.58,1.59,4.68,1.59,4.68s2.83-1.32,4,1.06-3.17,3-3.17,3,2.49,2.64.39,4.09-4.08-2.9-4.08-2.9-.8,3.43-3.83,1.45,1.28-4.86,1.28-4.86-3.83-.86-2.18-4,4,1.24,4,1.24S282.13,271.4,284.4,271.94Z" style="opacity:0.2;isolation:isolate"></path><path d="M283.91,277.08c2.13.65,1.38,3.61-.4,3S282,276.49,283.91,277.08Z" style="fill:#40AFFF"></path><path d="M264.67,280.81s2.49,2.64.38,4.09S261,282,261,282s-.8,3.42-3.83,1.45,1.28-4.86,1.28-4.86a3.91,3.91,0,0,1-2.35-1.58c.14-.92.27-1.87.41-2.84,1.62-2.37,3.72,1.63,3.72,1.63s-.25-4.3,2-3.76,1.59,4.68,1.59,4.68,2.82-1.32,4,1.06S264.67,280.81,264.67,280.81Z" style="opacity:0.2;isolation:isolate"></path><path d="M261.73,277.18c2.12.65,1.38,3.61-.4,3S259.78,276.59,261.73,277.18Z" style="fill:#40AFFF"></path><path d="M271.28,254c2.43.58,1.59,4.68,1.59,4.68s2.82-1.32,4,1.06-3.16,3-3.16,3,2.49,2.64.38,4.09-4.08-2.91-4.08-2.91-.8,3.43-3.83,1.46,1.28-4.86,1.28-4.86-3.83-.86-2.18-4,4,1.24,4,1.24S269,253.42,271.28,254Z" style="opacity:0.2;isolation:isolate"></path><path d="M270.78,259.11c2.13.64,1.39,3.61-.39,3S268.83,258.52,270.78,259.11Z" style="fill:#40AFFF"></path><path d="M261.1,249s2.49,2.64.39,4.09c-1.32.91-2.59-.46-3.36-1.61h0c0-1-.05-2-.11-3,0-.59-.09-1.17-.14-1.75,0,0,.18-.31,1.18-.77a20.69,20.69,0,0,1,3.92-1.2h0a2.45,2.45,0,0,1,1.27,1.24C265.45,248.33,261.1,249,261.1,249Z" style="opacity:0.2;isolation:isolate"></path><path d="M258,248.44c0-.59-.09-1.17-.14-1.75,0,0,.18-.31,1.18-.77C259.93,246.92,259.31,248.64,258,248.44Z" style="fill:#40AFFF"></path><path d="M296.56,262.39a9.89,9.89,0,0,1-1.2-1.93s-.8,3.43-3.83,1.45,1.27-4.85,1.27-4.85-3.82-.87-2.17-4,3.95,1.24,3.95,1.24a7.32,7.32,0,0,1,0-.74c.18.66.36,1.38.56,2.16s.46,1.93.68,3S296.32,261.08,296.56,262.39Z" style="opacity:0.2;isolation:isolate"></path><path d="M295.82,258.7l-.1,0c-1.42-.48-1.56-2.48-.58-3C295.36,256.62,295.6,257.62,295.82,258.7Z" style="fill:#40AFFF"></path><path d="M296.28,260.94c-3.91,4.55-12,5.38-12,5.38l8-18.94a4.51,4.51,0,0,1,.6.67s.75,1.92,1.71,5.48c.18.66.36,1.38.56,2.16s.46,1.93.68,3C296,259.42,296.13,260.16,296.28,260.94Z" style="opacity:0.2;isolation:isolate"></path><path d="M242.89,267.12,255.26,287s19.6-9,22.31-11.84S242.89,267.12,242.89,267.12Z" style="opacity:0.2;isolation:isolate"></path><path d="M251.51,267.37s1.46-4.47.34-6-10.91-6.49-11.91-5.54-2.56,9.46-1.38,11.19,10.2,5.38,10.73,4.29S251.51,267.37,251.51,267.37Z" style="fill:#eec1bb"></path><path d="M292.27,247.38c5.11,4.93-8.37,26.65-14.17,29.29s-29.4-6.09-29.4-6.09l2.44-6.18s18.39,6.73,22.21,5,10.54-16.22,12.13-19.78S290.62,245.79,292.27,247.38Z" style="fill:#eec1bb"></path></g><polygon points="216.89 278.49 251.05 298.5 274.13 298.5 279.03 288.5 256.57 288.5 216.89 278.49" style="opacity:0.2;isolation:isolate"></polygon><path d="M196.51,231.63c8.6-5.34,22.46,30.48,26.84,35.25S264.42,287,264.42,287L262.7,294S230.12,285.12,219,279.7s-18.16-26.32-22.52-36.63A13.91,13.91,0,0,1,196.51,231.63Z" style="fill:#eec1bb"></path><path d="M259.5,287s5.58-3,7.48-3.11,17.26,3.5,17.26,4.29-5.47,11.08-7,11.44-16.66-4.38-16.66-4.38Z" style="fill:#eec1bb"></path></g></svg>